<?xml version="1.0" encoding="UTF-8"?>
<!DOCTYPE svg PUBLIC "-//W3C//DTD SVG 1.1//EN" "http://www.w3.org/Graphics/SVG/1.1/DTD/svg11.dtd">
<!-- Creator: CorelDRAW X6 -->
<svg xmlns="http://www.w3.org/2000/svg" xml:space="preserve" width="2.77778in" height="2.77778in" version="1.1" style="shape-rendering:geometricPrecision; text-rendering:geometricPrecision; image-rendering:optimizeQuality; fill-rule:evenodd; clip-rule:evenodd"
viewBox="0 0 2778 2778"
 xmlns:xlink="http://www.w3.org/1999/xlink">
 <defs>
  <style type="text/css">
   <![CDATA[
    .fil0 {fill:#3955D2;fill-rule:nonzero}
    .fil1 {fill:#FDBF14;fill-rule:nonzero}
   ]]>
  </style>
 </defs>
 <g id="__x0023_Layer_x0020_1">
  <metadata id="CorelCorpID_0Corel-Layer"/>
  <g id="_264649504">
   <g>
    <path class="fil0" d="M1412 61c-767,0 -1342,594 -1342,1328l1342 0 0 1295c688,0 1277,-611 1277,-1295 0,-734 -589,-1328 -1277,-1328z"/>
   </g>
   <g>
    <path class="fil1" d="M70 1389c0,90 -36,157 87,289l932 0 0 1022c87,-8 169,-15 323,-15l0 -1295 -1342 0z"/>
   </g>
   <g>
    <path class="fil1" d="M893 1878l0 748c-368,-119 -589,-383 -748,-748l748 0z"/>
   </g>
  </g>
 </g>
</svg>
