<?xml version="1.0" encoding="utf-8"?>
<!-- Generator: Adobe Illustrator 24.0.3, SVG Export Plug-In . SVG Version: 6.00 Build 0)  -->
<svg version="1.1" id="Layer_1" xmlns="http://www.w3.org/2000/svg" xmlns:xlink="http://www.w3.org/1999/xlink" x="0px" y="0px"
	 viewBox="0 0 264.4 65.3" style="enable-background:new 0 0 264.4 65.3;" xml:space="preserve">
<style type="text/css">
	.st0{fill:#FFFFFF;}
</style>
<g>
	<path class="st0" d="M3.9,49c0.1-2.1,0.3-5.2,0.3-8V3.6h5.6V23h0.1c2-3.5,5.6-5.7,10.6-5.7c7.7,0,13.1,6.4,13.1,15.8
		c0,11.1-7,16.6-13.9,16.6c-4.5,0-8.1-1.7-10.4-5.8H9.1L8.8,49L3.9,49L3.9,49z M9.8,36.6c0,0.7,0.1,1.4,0.3,2
		c1.1,3.9,4.4,6.6,8.4,6.6c5.9,0,9.4-4.8,9.4-11.9c0-6.2-3.2-11.5-9.2-11.5c-3.8,0-7.4,2.6-8.6,6.9C10,29.4,9.8,30.1,9.8,31
		L9.8,36.6z"/>
	<path class="st0" d="M59.2,49l-0.4-3.9h-0.2c-1.7,2.4-5.1,4.6-9.5,4.6c-6.3,0-9.5-4.4-9.5-8.9c0-7.5,6.7-11.6,18.6-11.5v-0.6
		c0-2.6-0.7-7.2-7-7.2c-2.9,0-5.9,0.9-8.1,2.3l-1.3-3.7c2.6-1.7,6.3-2.8,10.2-2.8c9.5,0,11.8,6.5,11.8,12.7v11.6
		c0,2.7,0.1,5.3,0.5,7.4L59.2,49z M58.4,33.2c-6.1-0.1-13.1,1-13.1,7c0,3.6,2.4,5.4,5.3,5.4c4,0,6.6-2.6,7.5-5.2
		c0.2-0.6,0.3-1.2,0.3-1.8L58.4,33.2z"/>
	<path class="st0" d="M73.8,3.6h5.6V49h-5.6V3.6z"/>
	<path class="st0" d="M88.8,43.3c1.7,1.1,4.6,2.2,7.4,2.2c4.1,0,6-2,6-4.6c0-2.7-1.6-4.2-5.8-5.7c-5.6-2-8.2-5.1-8.2-8.8
		c0-5,4-9.1,10.7-9.1c3.1,0,5.9,0.9,7.6,1.9l-1.4,4.1c-1.2-0.8-3.5-1.8-6.3-1.8c-3.3,0-5.2,1.9-5.2,4.2c0,2.6,1.9,3.7,5.9,5.2
		c5.4,2,8.1,4.7,8.1,9.3c0,5.4-4.2,9.3-11.6,9.3c-3.4,0-6.5-0.8-8.7-2.1L88.8,43.3z"/>
	<path class="st0" d="M133.7,49l-0.4-3.9H133c-1.7,2.4-5.1,4.6-9.5,4.6c-6.3,0-9.5-4.4-9.5-8.9c0-7.5,6.7-11.6,18.6-11.5v-0.6
		c0-2.6-0.7-7.2-7-7.2c-2.9,0-5.9,0.9-8.1,2.3l-1.3-3.7c2.6-1.7,6.3-2.8,10.2-2.8c9.5,0,11.8,6.5,11.8,12.7v11.6
		c0,2.7,0.1,5.3,0.5,7.4L133.7,49z M132.8,33.2c-6.1-0.1-13.1,1-13.1,7c0,3.6,2.4,5.4,5.3,5.4c4,0,6.6-2.6,7.5-5.2
		c0.2-0.6,0.3-1.2,0.3-1.8V33.2z"/>
	<path class="st0" d="M148.3,26.4c0-3.2-0.1-5.8-0.3-8.4h4.9l0.3,5h0.2c1.7-2.9,4.6-5.7,9.7-5.7c4.2,0,7.4,2.6,8.8,6.2h0.1
		c1-1.7,2.2-3.1,3.5-4c1.9-1.4,3.9-2.2,6.8-2.2c4.1,0,10.2,2.7,10.2,13.4V49H187V31.5c0-6-2.2-9.5-6.7-9.5c-3.2,0-5.7,2.4-6.7,5.1
		c-0.3,0.8-0.4,1.8-0.4,2.8V49h-5.5V30.5c0-4.9-2.2-8.5-6.5-8.5c-3.5,0-6.1,2.8-7,5.6c-0.3,0.8-0.4,1.8-0.4,2.8V49h-5.5L148.3,26.4
		L148.3,26.4z"/>
	<path class="st0" d="M208.8,9.3c0.1,1.9-1.3,3.5-3.6,3.5c-2,0-3.4-1.5-3.4-3.5c0-2,1.5-3.5,3.5-3.5C207.5,5.8,208.8,7.4,208.8,9.3
		L208.8,9.3z M202.6,49V18h5.6v31H202.6z"/>
	<path class="st0" d="M239.8,44.2h-0.1c-1.7,3.1-5.1,5.5-10.1,5.5c-7.2,0-13.1-6.3-13.1-15.7c0-11.6,7.5-16.7,14-16.7
		c4.8,0,8,2.4,9.5,5.4h0.1l0.2-4.7h5.3c-0.1,2.6-0.2,5.3-0.2,8.5v35.1h-5.6L239.8,44.2L239.8,44.2z M239.8,30.6
		c0-0.8-0.1-1.7-0.3-2.4c-0.8-3.5-3.8-6.4-8.1-6.4c-5.8,0-9.3,4.9-9.3,11.9c0,6.1,2.9,11.5,9.2,11.5c3.6,0,6.8-2.2,8.1-6.1
		c0.3-0.8,0.4-1.9,0.4-2.7L239.8,30.6L239.8,30.6z"/>
	<path class="st0" d="M262,21.9c0,2.7-2.2,4.8-5,4.8c-2.8,0-5-2.2-5-4.8c0-2.7,2.2-4.8,5-4.8C259.8,17.1,262,19.3,262,21.9z
		 M253.5,21.9c0,2,1.5,3.6,3.5,3.6c2,0,3.5-1.6,3.5-3.6c0-2-1.5-3.6-3.5-3.6C255,18.3,253.5,19.9,253.5,21.9z M256.4,24.2H255v-4.5
		c0.3-0.1,1-0.1,2-0.1c1,0,1.5,0.1,1.8,0.3c0.3,0.2,0.5,0.5,0.5,1s-0.4,0.8-1,1V22c0.5,0.2,0.8,0.5,0.9,1.1c0.1,0.6,0.2,0.9,0.3,1.1
		h-1.5c-0.1-0.2-0.2-0.6-0.3-1c-0.1-0.4-0.3-0.7-0.8-0.7h-0.4L256.4,24.2L256.4,24.2z M256.5,21.7h0.4c0.5,0,0.8-0.2,0.8-0.5
		c0-0.4-0.3-0.6-0.8-0.6c-0.2,0-0.3,0-0.4,0L256.5,21.7L256.5,21.7z"/>
</g>
</svg>
